<svg xmlns="http://www.w3.org/2000/svg" width="166.254" height="188.953" viewBox="0 0 166.254 188.953">
  <g id="Group_37878" data-name="Group 37878" transform="translate(13997.862 6602.406)">
    <g id="Group_37628" data-name="Group 37628" transform="translate(703.138 -468.346)">
      <path id="Path_30666" data-name="Path 30666" d="M63.237,118.162a15.57,15.57,0,1,0,15.569,15.569A15.586,15.586,0,0,0,63.237,118.162Z" transform="translate(-14685.002 -6094.409)"/>
      <path id="Path_30667" data-name="Path 30667" d="M63.036,87.264A14.768,14.768,0,1,0,77.8,102.032,14.784,14.784,0,0,0,63.036,87.264Z" transform="translate(-14684.802 -6104.778)"/>
      <path id="Path_30668" data-name="Path 30668" d="M37.4,74.113A12.471,12.471,0,1,0,49.87,86.582,12.485,12.485,0,0,0,37.4,74.113Z" transform="translate(-14692.634 -6109.191)"/>
      <path id="Path_30669" data-name="Path 30669" d="M36.824,104.99a11.893,11.893,0,1,0,11.892,11.895A11.909,11.909,0,0,0,36.824,104.99Z" transform="translate(-14692.634 -6098.83)"/>
      <path id="Path_30670" data-name="Path 30670" d="M36.824,44.1A11.893,11.893,0,1,0,48.716,55.992,11.907,11.907,0,0,0,36.824,44.1Z" transform="translate(-14692.634 -6119.264)"/>
      <path id="Path_30671" data-name="Path 30671" d="M36.373,15.109A10.094,10.094,0,1,0,46.466,25.2,10.106,10.106,0,0,0,36.373,15.109Z" transform="translate(-14692.182 -6128.992)"/>
      <g id="Group_37615" data-name="Group 37615" transform="translate(-14701 -6092.519)">
        <path id="Path_30672" data-name="Path 30672" d="M10.094,31.105A10.094,10.094,0,1,0,20.189,41.2,10.106,10.106,0,0,0,10.094,31.105Z" transform="translate(0 -31.105)"/>
        <path id="Path_30727" data-name="Path 30727" d="M10.094,31.105A10.094,10.094,0,1,0,20.189,41.2,10.106,10.106,0,0,0,10.094,31.105Z" transform="translate(0 -31.105)"/>
        <path id="Path_30724" data-name="Path 30724" d="M10.094,31.105A10.094,10.094,0,1,0,20.189,41.2,10.106,10.106,0,0,0,10.094,31.105Z" transform="translate(0 -31.105)"/>
        <path id="Path_30728" data-name="Path 30728" d="M10.094,31.105A10.094,10.094,0,1,0,20.189,41.2,10.106,10.106,0,0,0,10.094,31.105Z" transform="translate(0 -31.105)"/>
        <path id="Path_30673" data-name="Path 30673" d="M10.094,60.545a10.094,10.094,0,1,0,10.1,10.093A10.106,10.106,0,0,0,10.094,60.545Z" transform="translate(0 -21.226)"/>
        <path id="Path_30729" data-name="Path 30729" d="M10.094,60.545a10.094,10.094,0,1,0,10.1,10.093A10.106,10.106,0,0,0,10.094,60.545Z" transform="translate(0 -21.226)"/>
        <path id="Path_30725" data-name="Path 30725" d="M10.094,60.545a10.094,10.094,0,1,0,10.1,10.093A10.106,10.106,0,0,0,10.094,60.545Z" transform="translate(0 -21.226)"/>
        <path id="Path_30730" data-name="Path 30730" d="M10.094,60.545a10.094,10.094,0,1,0,10.1,10.093A10.106,10.106,0,0,0,10.094,60.545Z" transform="translate(0 -21.226)"/>
        <path id="Path_30674" data-name="Path 30674" d="M10.094,92.344a10.095,10.095,0,1,0,10.1,10.093A10.106,10.106,0,0,0,10.094,92.344Z" transform="translate(0 -10.554)"/>
        <path id="Path_30731" data-name="Path 30731" d="M10.094,92.344a10.095,10.095,0,1,0,10.1,10.093A10.106,10.106,0,0,0,10.094,92.344Z" transform="translate(0 -10.554)"/>
        <path id="Path_30726" data-name="Path 30726" d="M10.094,92.344a10.095,10.095,0,1,0,10.1,10.093A10.106,10.106,0,0,0,10.094,92.344Z" transform="translate(0 -10.554)"/>
        <path id="Path_30732" data-name="Path 30732" d="M10.094,92.344a10.095,10.095,0,1,0,10.1,10.093A10.106,10.106,0,0,0,10.094,92.344Z" transform="translate(0 -10.554)"/>
      </g>
      <path id="Path_30675" data-name="Path 30675" d="M63.235,56.457A15.553,15.553,0,1,0,78.788,72.01,15.572,15.572,0,0,0,63.235,56.457Z" transform="translate(-14684.999 -6115.116)"/>
      <path id="Path_30676" data-name="Path 30676" d="M62.5,29.9A12.624,12.624,0,1,0,75.123,42.521,12.638,12.638,0,0,0,62.5,29.9Z" transform="translate(-14684.263 -6124.03)"/>
      <path id="Path_30677" data-name="Path 30677" d="M90.456,101.244a15.57,15.57,0,1,0,15.569,15.569A15.587,15.587,0,0,0,90.456,101.244Z" transform="translate(-14675.869 -6100.086)"/>
      <path id="Path_30678" data-name="Path 30678" d="M90.255,72.393a14.767,14.767,0,1,0,14.766,14.766A14.784,14.784,0,0,0,90.255,72.393Z" transform="translate(-14675.666 -6109.769)"/>
      <path id="Path_30679" data-name="Path 30679" d="M90.452,41.426a15.554,15.554,0,1,0,15.555,15.555A15.573,15.573,0,0,0,90.452,41.426Z" transform="translate(-14675.864 -6120.161)"/>
      <path id="Path_30680" data-name="Path 30680" d="M116.733,86.353a15.569,15.569,0,1,0,15.57,15.569A15.586,15.586,0,0,0,116.733,86.353Z" transform="translate(-14667.05 -6105.083)"/>
      <path id="Path_30681" data-name="Path 30681" d="M116.532,57.5A14.767,14.767,0,1,0,131.3,72.268,14.784,14.784,0,0,0,116.532,57.5Z" transform="translate(-14666.848 -6114.766)"/>
      <path id="Path_30682" data-name="Path 30682" d="M116.532,27.607A14.767,14.767,0,1,0,131.3,42.374,14.784,14.784,0,0,0,116.532,27.607Z" transform="translate(-14666.848 -6124.798)"/>
      <path id="Path_30683" data-name="Path 30683" d="M89.718,12.979A12.624,12.624,0,1,0,102.342,25.6,12.638,12.638,0,0,0,89.718,12.979Z" transform="translate(-14675.128 -6129.707)"/>
      <path id="Path_30684" data-name="Path 30684" d="M61.849,0a10.038,10.038,0,1,0,10.038,10.04A10.052,10.052,0,0,0,61.849,0Z" transform="translate(-14683.613 -6134.063)"/>
    </g>
  </g>
</svg>
